<svg xmlns="http://www.w3.org/2000/svg" width="820" height="356" viewBox="0 0 820 356" fill="none" role="img" aria-labelledby="t d"><title id="t">Closed work</title><desc id="d">Name withheld — Education operations — client withheld (private). SCHEMA: 38 tables · 18 migrations, SURFACE: 108 server actions · 4 roles, TESTS: 693 cases across 131 files, CLIENT: withheld. Name withheld — Unlaunched — name withheld (private). SCHEMA: 34 tables · 61 server actions, AUTHZ: deny by default, re-proven, MONEY: append-only ledger, PRODUCT: withheld.</desc><style>
  @media (prefers-reduced-motion: reduce) { .orbit { display: none; } }
</style><text x="32" y="38" font-family="Consolas, &apos;DejaVu Sans Mono&apos;, &apos;Courier New&apos;, monospace" font-size="8.5" letter-spacing="2.6" fill="#4A525C">SHEET 04/07 · CLOSED WORK</text><text x="32" y="66" font-family="Consolas, &apos;DejaVu Sans Mono&apos;, &apos;Courier New&apos;, monospace" font-size="20" font-weight="700" letter-spacing="0.3" fill="#E6EDF3">Withheld, not absent</text><text x="32" y="88" font-family="Consolas, &apos;DejaVu Sans Mono&apos;, &apos;Courier New&apos;, monospace" font-size="10.5" fill="#7D8590">The labels stay legible. The values do not.</text><line x1="32" y1="106" x2="788" y2="106" stroke="#21262D" stroke-width="1"/><rect x="32" y="126" width="378" height="152" rx="3" stroke="#30363D" stroke-width="1"/><rect x="46" y="138" width="37" height="15" rx="1.5" fill="#E6EDF3" opacity="0.5"/><rect x="88" y="138" width="28" height="15" rx="1.5" fill="#E6EDF3" opacity="0.5"/><rect x="121" y="138" width="19" height="15" rx="1.5" fill="#E6EDF3" opacity="0.5"/><rect x="145" y="138" width="9" height="15" rx="1.5" fill="#E6EDF3" opacity="0.5"/><circle cx="392" cy="145" r="3" fill="none" stroke="#4A525C" stroke-width="1.2"/><text x="46" y="166" font-family="Consolas, &apos;DejaVu Sans Mono&apos;, &apos;Courier New&apos;, monospace" font-size="9" letter-spacing="0.4" fill="#7D8590">Education operations — client withheld</text><line x1="46" y1="180" x2="396" y2="180" stroke="#21262D" stroke-width="1"/><text x="46" y="197" font-family="Consolas, &apos;DejaVu Sans Mono&apos;, &apos;Courier New&apos;, monospace" font-size="7.5" letter-spacing="1.5" fill="#4A525C">SCHEMA</text><text x="112" y="197" font-family="Consolas, &apos;DejaVu Sans Mono&apos;, &apos;Courier New&apos;, monospace" font-size="9.5" fill="#B9C3CE">38 tables · 18 migrations</text><text x="46" y="218" font-family="Consolas, &apos;DejaVu Sans Mono&apos;, &apos;Courier New&apos;, monospace" font-size="7.5" letter-spacing="1.5" fill="#4A525C">SURFACE</text><text x="112" y="218" font-family="Consolas, &apos;DejaVu Sans Mono&apos;, &apos;Courier New&apos;, monospace" font-size="9.5" fill="#B9C3CE">108 server actions · 4 roles</text><text x="46" y="239" font-family="Consolas, &apos;DejaVu Sans Mono&apos;, &apos;Courier New&apos;, monospace" font-size="7.5" letter-spacing="1.5" fill="#4A525C">TESTS</text><text x="112" y="239" font-family="Consolas, &apos;DejaVu Sans Mono&apos;, &apos;Courier New&apos;, monospace" font-size="9.5" fill="#B9C3CE">693 cases across 131 files</text><text x="46" y="260" font-family="Consolas, &apos;DejaVu Sans Mono&apos;, &apos;Courier New&apos;, monospace" font-size="7.5" letter-spacing="1.5" fill="#4A525C">CLIENT</text><rect x="112" y="253" width="28" height="9" rx="1.5" fill="#7D8590" opacity="0.5"/><rect x="145" y="253" width="19" height="9" rx="1.5" fill="#7D8590" opacity="0.5"/><rect x="169" y="253" width="56" height="9" rx="1.5" fill="#7D8590" opacity="0.5"/><rect x="230" y="253" width="47" height="9" rx="1.5" fill="#7D8590" opacity="0.5"/><rect x="282" y="253" width="38" height="9" rx="1.5" fill="#7D8590" opacity="0.5"/><rect x="325" y="253" width="29" height="9" rx="1.5" fill="#7D8590" opacity="0.5"/><rect x="359" y="253" width="20" height="9" rx="1.5" fill="#7D8590" opacity="0.5"/><rect x="384" y="253" width="12" height="9" rx="1.5" fill="#7D8590" opacity="0.5"/><rect x="432" y="126" width="378" height="152" rx="3" stroke="#30363D" stroke-width="1"/><rect x="446" y="138" width="37" height="15" rx="1.5" fill="#E6EDF3" opacity="0.5"/><rect x="488" y="138" width="28" height="15" rx="1.5" fill="#E6EDF3" opacity="0.5"/><rect x="521" y="138" width="19" height="15" rx="1.5" fill="#E6EDF3" opacity="0.5"/><rect x="545" y="138" width="9" height="15" rx="1.5" fill="#E6EDF3" opacity="0.5"/><circle cx="792" cy="145" r="3" fill="none" stroke="#4A525C" stroke-width="1.2"/><text x="446" y="166" font-family="Consolas, &apos;DejaVu Sans Mono&apos;, &apos;Courier New&apos;, monospace" font-size="9" letter-spacing="0.4" fill="#7D8590">Unlaunched — name withheld</text><line x1="446" y1="180" x2="796" y2="180" stroke="#21262D" stroke-width="1"/><text x="446" y="197" font-family="Consolas, &apos;DejaVu Sans Mono&apos;, &apos;Courier New&apos;, monospace" font-size="7.5" letter-spacing="1.5" fill="#4A525C">SCHEMA</text><text x="512" y="197" font-family="Consolas, &apos;DejaVu Sans Mono&apos;, &apos;Courier New&apos;, monospace" font-size="9.5" fill="#B9C3CE">34 tables · 61 server actions</text><text x="446" y="218" font-family="Consolas, &apos;DejaVu Sans Mono&apos;, &apos;Courier New&apos;, monospace" font-size="7.5" letter-spacing="1.5" fill="#4A525C">AUTHZ</text><text x="512" y="218" font-family="Consolas, &apos;DejaVu Sans Mono&apos;, &apos;Courier New&apos;, monospace" font-size="9.5" fill="#B9C3CE">deny by default, re-proven</text><text x="446" y="239" font-family="Consolas, &apos;DejaVu Sans Mono&apos;, &apos;Courier New&apos;, monospace" font-size="7.5" letter-spacing="1.5" fill="#4A525C">MONEY</text><text x="512" y="239" font-family="Consolas, &apos;DejaVu Sans Mono&apos;, &apos;Courier New&apos;, monospace" font-size="9.5" fill="#B9C3CE">append-only ledger</text><text x="446" y="260" font-family="Consolas, &apos;DejaVu Sans Mono&apos;, &apos;Courier New&apos;, monospace" font-size="7.5" letter-spacing="1.5" fill="#4A525C">PRODUCT</text><rect x="512" y="253" width="28" height="9" rx="1.5" fill="#7D8590" opacity="0.5"/><rect x="545" y="253" width="19" height="9" rx="1.5" fill="#7D8590" opacity="0.5"/><rect x="569" y="253" width="56" height="9" rx="1.5" fill="#7D8590" opacity="0.5"/><rect x="630" y="253" width="47" height="9" rx="1.5" fill="#7D8590" opacity="0.5"/><rect x="682" y="253" width="38" height="9" rx="1.5" fill="#7D8590" opacity="0.5"/><rect x="725" y="253" width="29" height="9" rx="1.5" fill="#7D8590" opacity="0.5"/><rect x="759" y="253" width="20" height="9" rx="1.5" fill="#7D8590" opacity="0.5"/><rect x="784" y="253" width="12" height="9" rx="1.5" fill="#7D8590" opacity="0.5"/><line x1="32" y1="310" x2="788" y2="310" stroke="#21262D" stroke-width="1"/><circle cx="38" cy="329" r="3" fill="none" stroke="#4A525C" stroke-width="1.2"/><text x="48" y="332" font-family="Consolas, &apos;DejaVu Sans Mono&apos;, &apos;Courier New&apos;, monospace" font-size="9" fill="#7D8590">closed — walkthrough on request, screen shared, any part you want to poke at</text></svg>