<svg xmlns="http://www.w3.org/2000/svg" width="820" height="348" viewBox="0 0 820 348" fill="none" role="img" aria-labelledby="t d"><title id="t">Capability matrix</title><desc id="d">Interface: C++ carried a full system, TypeScript carried a full system, Python used in a smaller project, SQL not claimed. Application logic: C++ carried a full system, TypeScript carried a full system, Python carried a full system, SQL not claimed. Schema &amp; queries: C++ carried a full system, TypeScript carried a full system, Python carried a full system, SQL carried a full system. Authorization: C++ carried a full system, TypeScript carried a full system, Python carried a full system, SQL carried a full system</desc><style>
  @media (prefers-reduced-motion: reduce) { .orbit { display: none; } }
</style><text x="32" y="38" font-family="Consolas, &apos;DejaVu Sans Mono&apos;, &apos;Courier New&apos;, monospace" font-size="8.5" letter-spacing="2.6" fill="#4A525C">SHEET 03 · CAPABILITY MATRIX</text><text x="32" y="66" font-family="Consolas, &apos;DejaVu Sans Mono&apos;, &apos;Courier New&apos;, monospace" font-size="20" font-weight="700" letter-spacing="0.3" fill="#E6EDF3">Where the work actually happened</text><text x="280" y="106" font-family="Consolas, &apos;DejaVu Sans Mono&apos;, &apos;Courier New&apos;, monospace" font-size="13" font-weight="700" letter-spacing="0.4" text-anchor="middle" fill="#E6EDF3">C++</text><text x="280" y="118" font-family="Consolas, &apos;DejaVu Sans Mono&apos;, &apos;Courier New&apos;, monospace" font-size="8" letter-spacing="1.2" text-anchor="middle" fill="#4A525C">desktop</text><text x="432" y="106" font-family="Consolas, &apos;DejaVu Sans Mono&apos;, &apos;Courier New&apos;, monospace" font-size="13" font-weight="700" letter-spacing="0.4" text-anchor="middle" fill="#E6EDF3">TypeScript</text><text x="432" y="118" font-family="Consolas, &apos;DejaVu Sans Mono&apos;, &apos;Courier New&apos;, monospace" font-size="8" letter-spacing="1.2" text-anchor="middle" fill="#4A525C">web</text><text x="584" y="106" font-family="Consolas, &apos;DejaVu Sans Mono&apos;, &apos;Courier New&apos;, monospace" font-size="13" font-weight="700" letter-spacing="0.4" text-anchor="middle" fill="#E6EDF3">Python</text><text x="584" y="118" font-family="Consolas, &apos;DejaVu Sans Mono&apos;, &apos;Courier New&apos;, monospace" font-size="8" letter-spacing="1.2" text-anchor="middle" fill="#4A525C">tooling</text><text x="736" y="106" font-family="Consolas, &apos;DejaVu Sans Mono&apos;, &apos;Courier New&apos;, monospace" font-size="13" font-weight="700" letter-spacing="0.4" text-anchor="middle" fill="#E6EDF3">SQL</text><text x="736" y="118" font-family="Consolas, &apos;DejaVu Sans Mono&apos;, &apos;Courier New&apos;, monospace" font-size="8" letter-spacing="1.2" text-anchor="middle" fill="#4A525C">data</text><line x1="32" y1="122" x2="812" y2="122" stroke="#21262D" stroke-width="1"/><text x="32" y="145" font-family="Consolas, &apos;DejaVu Sans Mono&apos;, &apos;Courier New&apos;, monospace" font-size="12" fill="#B9C3CE">Interface</text><rect x="273.5" y="134.5" width="13" height="13" rx="1.5" fill="#E3A008"/><rect x="425.5" y="134.5" width="13" height="13" rx="1.5" fill="#E3A008"/><rect x="577.5" y="134.5" width="13" height="13" rx="1.5" fill="none" stroke="#E3A008" stroke-width="1.4"/><circle cx="736" cy="141" r="1.4" fill="#4A525C"/><line x1="32" y1="160" x2="812" y2="160" stroke="#21262D" stroke-width="1"/><text x="32" y="183" font-family="Consolas, &apos;DejaVu Sans Mono&apos;, &apos;Courier New&apos;, monospace" font-size="12" fill="#B9C3CE">Application logic</text><rect x="273.5" y="172.5" width="13" height="13" rx="1.5" fill="#E3A008"/><rect x="425.5" y="172.5" width="13" height="13" rx="1.5" fill="#E3A008"/><rect x="577.5" y="172.5" width="13" height="13" rx="1.5" fill="#E3A008"/><circle cx="736" cy="179" r="1.4" fill="#4A525C"/><line x1="32" y1="198" x2="812" y2="198" stroke="#21262D" stroke-width="1"/><text x="32" y="221" font-family="Consolas, &apos;DejaVu Sans Mono&apos;, &apos;Courier New&apos;, monospace" font-size="12" fill="#B9C3CE">Schema &amp; queries</text><rect x="273.5" y="210.5" width="13" height="13" rx="1.5" fill="#E3A008"/><rect x="425.5" y="210.5" width="13" height="13" rx="1.5" fill="#E3A008"/><rect x="577.5" y="210.5" width="13" height="13" rx="1.5" fill="#E3A008"/><rect x="729.5" y="210.5" width="13" height="13" rx="1.5" fill="#E3A008"/><line x1="32" y1="236" x2="812" y2="236" stroke="#21262D" stroke-width="1"/><text x="32" y="259" font-family="Consolas, &apos;DejaVu Sans Mono&apos;, &apos;Courier New&apos;, monospace" font-size="12" fill="#B9C3CE">Authorization</text><rect x="273.5" y="248.5" width="13" height="13" rx="1.5" fill="#E3A008"/><rect x="425.5" y="248.5" width="13" height="13" rx="1.5" fill="#E3A008"/><rect x="577.5" y="248.5" width="13" height="13" rx="1.5" fill="#E3A008"/><rect x="729.5" y="248.5" width="13" height="13" rx="1.5" fill="#E3A008"/><line x1="32" y1="274" x2="812" y2="274" stroke="#21262D" stroke-width="1"/><rect x="32.5" y="300" width="9" height="9" rx="1.5" fill="#E3A008"/><text x="48" y="308" font-family="Consolas, &apos;DejaVu Sans Mono&apos;, &apos;Courier New&apos;, monospace" font-size="10" fill="#7D8590">carried a full system</text><rect x="190" y="300" width="9" height="9" rx="1.5" fill="none" stroke="#E3A008" stroke-width="1.4"/><text x="205.5" y="308" font-family="Consolas, &apos;DejaVu Sans Mono&apos;, &apos;Courier New&apos;, monospace" font-size="10" fill="#7D8590">used in a smaller project</text><circle cx="374" cy="304.5" r="1.4" fill="#4A525C"/><text x="385" y="308" font-family="Consolas, &apos;DejaVu Sans Mono&apos;, &apos;Courier New&apos;, monospace" font-size="10" fill="#7D8590">not claimed</text></svg>